<?xml version="1.0" standalone="no"?>
<!DOCTYPE svg PUBLIC "-//W3C//DTD SVG 20010904//EN"
 "http://www.w3.org/TR/2001/REC-SVG-20010904/DTD/svg10.dtd">
<svg version="1.0" xmlns="http://www.w3.org/2000/svg"
 width="600.000000pt" height="600.000000pt" viewBox="0 0 600.000000 600.000000"
 preserveAspectRatio="xMidYMid meet">
<metadata>
Created by potrace 1.11, written by Peter Selinger 2001-2013
</metadata>
<g transform="translate(0.000000,600.000000) scale(0.100000,-0.100000)"
fill="#000000" stroke="none">
<path d="M2910 5677 c-3 -3 -24 -7 -48 -11 -57 -7 -216 -61 -250 -84 -15 -11
-46 -32 -70 -47 -120 -79 -232 -225 -289 -375 -147 -387 31 -823 410 -1004 70
-34 174 -65 226 -69 l26 -2 3 -452 2 -451 -82 -52 c-46 -28 -148 -93 -228
-145 -80 -52 -206 -133 -280 -180 -74 -48 -211 -136 -305 -196 -93 -60 -199
-128 -235 -151 -36 -23 -102 -66 -147 -95 l-83 -54 16 -31 c9 -17 28 -48 43
-68 l27 -37 49 32 c113 74 1182 761 1213 779 9 6 12 -129 12 -661 l-1 -668
-57 -49 c-53 -46 -334 -290 -1011 -880 -157 -137 -287 -252 -288 -255 -1 -3
21 -32 50 -64 l52 -58 30 28 c17 16 102 91 190 167 88 76 174 150 190 165 17
14 68 59 115 100 47 40 101 88 120 105 19 18 121 106 225 196 105 91 192 167
195 170 5 5 220 191 252 218 19 16 20 15 124 -74 31 -27 325 -280 653 -561
l596 -513 52 58 c29 31 51 60 50 63 -1 3 -54 50 -117 104 -63 54 -133 113
-155 132 -22 20 -62 54 -90 78 -302 258 -444 380 -465 399 -14 12 -86 73 -160
136 -74 63 -145 124 -158 135 -13 11 -38 33 -55 49 -18 15 -65 55 -104 88
l-73 61 0 721 0 721 33 22 c17 11 111 72 207 133 96 62 191 122 210 135 83 54
339 218 512 329 51 33 143 93 205 133 62 39 130 84 153 98 46 29 46 29 -13
116 l-31 46 -86 -55 c-47 -30 -101 -64 -120 -77 -57 -37 -229 -148 -315 -203
-44 -28 -156 -101 -250 -161 -93 -60 -235 -151 -315 -202 -80 -51 -155 -99
-167 -107 l-23 -14 0 396 0 396 28 5 c158 33 226 60 334 131 217 144 345 373
353 634 2 58 0 128 -6 155 -5 28 -11 59 -13 70 -21 109 -115 272 -212 369
-151 149 -317 221 -539 233 -60 3 -112 3 -115 0z m283 -187 c194 -61 361 -230
422 -430 20 -67 28 -225 14 -300 -24 -126 -82 -234 -178 -331 -103 -102 -212
-158 -351 -180 -330 -51 -652 166 -726 488 -14 61 -13 220 2 282 58 252 263
449 509 490 82 14 232 5 308 -19z"/>
</g>
</svg>
