<?xml version="1.0" standalone="no"?>
<!DOCTYPE svg PUBLIC "-//W3C//DTD SVG 20010904//EN"
 "http://www.w3.org/TR/2001/REC-SVG-20010904/DTD/svg10.dtd">
<svg version="1.0" xmlns="http://www.w3.org/2000/svg"
 width="300.000000pt" height="300.000000pt" viewBox="0 0 300.000000 300.000000"
 preserveAspectRatio="xMidYMid meet">
<metadata>
Created by potrace 1.11, written by Peter Selinger 2001-2013
</metadata>
<g transform="translate(0.000000,300.000000) scale(0.100000,-0.100000)"
fill="#000000" stroke="none">
<path d="M1390 2823 c-87 -22 -168 -82 -223 -165 -121 -183 -70 -428 115 -551
45 -29 144 -69 166 -66 31 5 32 -2 32 -230 l0 -229 -97 -62 c-476 -305 -591
-383 -586 -396 8 -21 23 -17 88 25 33 22 179 116 325 209 l265 171 3 -360 2
-360 -32 -27 c-18 -15 -57 -49 -88 -76 -71 -63 -86 -76 -265 -231 -298 -258
-299 -259 -292 -279 6 -16 9 -16 34 3 16 11 57 46 93 78 36 32 92 81 124 108
33 28 64 55 70 60 6 6 65 58 131 115 66 58 125 110 131 115 40 36 109 90 115
90 4 0 162 -132 350 -293 302 -259 344 -292 355 -277 11 14 3 24 -54 73 -177
149 -551 470 -582 499 -19 18 -38 33 -42 33 -5 0 -8 171 -8 379 l0 379 345
221 c247 160 342 226 338 236 -3 8 -10 15 -17 15 -6 0 -157 -95 -336 -210
l-325 -209 -3 211 c-1 116 0 213 2 215 2 3 15 6 28 7 149 18 288 136 331 283
21 68 17 183 -8 250 -39 109 -150 213 -260 246 -63 18 -154 19 -225 0z m255
-57 c84 -38 175 -134 191 -201 2 -5 7 -25 13 -42 5 -18 8 -63 7 -101 -5 -129
-82 -244 -205 -305 -59 -29 -74 -32 -151 -31 -70 0 -95 5 -142 26 -80 37 -149
105 -184 181 -24 53 -28 74 -28 147 0 99 26 169 90 239 102 113 273 150 409
87z"/>
</g>
</svg>
